<?xml version="1.0" encoding="UTF-8"?>
<svg width="30px" height="30px" viewBox="0 0 30 30" version="1.1" xmlns="http://www.w3.org/2000/svg" xmlns:xlink="http://www.w3.org/1999/xlink">
    <title>social/mysocial/facebook copy 2</title>
    <g id="Desktop" stroke="none" stroke-width="1" fill="none" fill-rule="evenodd">
        <g id="000_BLS_STB_DESKTOP---Menu-Open" transform="translate(-160, -655)" fill="#FFFFFF">
            <g id="social/mysocial/facebook-copy-2" transform="translate(164, 661)">
                <path d="M21.6501011,2.0939553 C21.1612943,2.30715905 20.6538758,2.47535172 20.1332091,2.59712226 C20.706922,2.06087486 21.1382826,1.39014703 21.3816369,0.64149616 L21.3816369,0.64149616 C21.4511001,0.427771163 21.2150899,0.242951402 21.0188831,0.357387704 L21.0188831,0.357387704 C20.2945532,0.779988568 19.5143293,1.09701951 18.6998315,1.2997721 C18.652577,1.31153953 18.6038184,1.31749959 18.5549045,1.31749959 C18.406541,1.31749959 18.2623045,1.26331675 18.1488573,1.1649705 C17.2822821,0.413734486 16.1677332,0 15.0105921,0 C14.5098807,0 14.004341,0.0767647243 13.5079707,0.22818288 C11.9700529,0.697369085 10.7834125,1.94517494 10.4111147,3.48468675 C10.2714388,4.06213859 10.2336213,4.64011168 10.298631,5.20252648 C10.3060875,5.26715522 10.2750305,5.31226634 10.2558836,5.3334214 C10.222252,5.37051382 10.1745692,5.39177417 10.1250612,5.39177417 C10.1195371,5.39177417 10.1138471,5.39151092 10.1082159,5.39098441 C6.74177166,5.08334635 3.70606232,3.48806692 1.56026314,0.899068662 L1.56026314,0.899068662 C1.45084125,0.76701017 1.24100835,0.783205526 1.15379254,0.930353709 L1.15379254,0.930353709 C0.733592,1.63943758 0.51152946,2.45044794 0.51152946,3.27571084 C0.51152946,4.54045443 1.02811954,5.73233471 1.9254337,6.60122399 C1.54808874,6.5132236 1.18286572,6.37462589 0.843603776,6.18928489 L0.843603776,6.18928489 C0.679470929,6.09959442 0.477522759,6.21487313 0.475216292,6.39952968 L0.475216292,6.39952968 C0.451722754,8.27838579 1.57008071,9.95021935 3.24541764,10.7030402 C3.21167896,10.7038299 3.17794081,10.7042037 3.14414859,10.7042037 C2.87858558,10.7042037 2.60969687,10.678984 2.34504597,10.6292291 L2.34504597,10.6292291 C2.1602085,10.5945165 2.00492597,10.7669844 2.06231867,10.9432537 L2.06231867,10.9432537 C2.60610353,12.6131339 4.06785312,13.8440021 5.81710256,14.123472 C4.36533059,15.0820512 2.6747066,15.5876943 0.915103776,15.5876943 L0.36654507,15.5873774 C0.1975309,15.5873774 0.0545849634,15.6957441 0.011513449,15.8567652 C-0.0309144128,16.0153597 0.0472365298,16.1826583 0.19136255,16.2651204 C2.17415414,17.4001284 4.43581142,18 6.73281643,18 C8.74344514,18 10.6242203,17.6075248 12.3229415,16.8335474 C13.8802203,16.1239886 15.2563658,15.1096934 16.4131269,13.818835 C17.4907201,12.6163509 18.333379,11.2282046 18.9176047,9.6930154 C19.4745313,8.22963651 19.7688977,6.66817462 19.7688977,5.1774121 L19.7688977,5.10639683 C19.7688442,4.86703094 19.8789138,4.64180177 20.0709347,4.48848292 C20.7996111,3.9065505 21.4341532,3.22152274 21.9568593,2.45245393 L21.9568593,2.45245393 C22.0948704,2.24938543 21.8772043,1.9948772 21.6501011,2.0939553 L21.6501011,2.0939553 Z" id="Fill-1"></path>
            </g>
        </g>
    </g>
</svg>